<svg width="45" height="26" viewBox="0 0 45 26" fill="none" xmlns="http://www.w3.org/2000/svg">
<mask id="mask0_42272_428" style="mask-type:luminance" maskUnits="userSpaceOnUse" x="0" y="0" width="45" height="26">
<path d="M44.0267 0H0V26H44.0267V0Z" fill="white"/>
</mask>
<g mask="url(#mask0_42272_428)">
<path d="M0.318176 17.7386H4.04208L6.31718 6.61982H9.10978L9.52158 4.55125H6.78258L6.88638 4.08589C7.04128 3.20878 7.35168 2.22397 8.74778 2.22397C9.57618 2.22397 10.3514 2.27562 11.1267 2.63768L11.5409 0.46584C10.6769 0.16099 9.76778 0.00351 8.85158 0C5.85188 0 3.78378 1.75861 3.00758 4.55125H1.71478L1.30108 6.61982H2.59388L0.318176 17.7386Z" fill="#EA1D2C"/>
<path d="M12.1095 15.0498C16.5053 15.0498 19.5567 11.0672 19.5567 7.80915C19.5567 5.37855 17.3327 4.34408 15.1609 4.34408C10.3499 4.34408 7.71367 8.63905 7.71367 11.5847C7.71367 14.0153 9.98927 15.0498 12.1095 15.0498ZM23.9018 15.0498C28.2976 15.0498 31.349 11.0672 31.349 7.80915C31.349 5.37855 29.0734 4.34408 26.9011 4.34408C22.0915 4.34408 19.4544 8.63655 19.4544 11.5847C19.4544 14.0153 21.7816 15.0498 23.9018 15.0498ZM37.3996 14.8427H41.0713L44.07 0.208984H40.3467L39.4672 4.55313L37.9157 4.39817C34.2956 4.39817 30.986 9.05225 30.986 12.3624C30.986 13.7068 31.8631 15.0517 33.3649 15.0517C35.4851 15.0517 36.985 14.0172 37.6043 12.9827H37.8109L37.3996 14.8427ZM25.9177 22.5486C23.0276 24.9433 19.3154 26.1126 15.5746 25.8066C10.6613 25.4962 7.14447 21.7207 6.52417 17.7386H6.73077C7.86867 20.2238 10.6096 22.5486 13.9714 22.9102C17.3824 23.3239 21.4703 21.7729 23.6937 19.6522L21.2115 17.7386H28.7104L27.0536 25.7033L25.9674 22.6003L25.9177 22.5486Z" fill="#EA1D2C"/>
</g>
</svg>
